<svg width="656" height="323" viewBox="0 0 656 323" fill="none" xmlns="http://www.w3.org/2000/svg">
<mask id="mask0_201_686" style="mask-type:alpha" maskUnits="userSpaceOnUse" x="0" y="0" width="656" height="323">
<rect width="656" height="323" fill="#C4C4C4"/>
</mask>
<g mask="url(#mask0_201_686)">
<path d="M-111.601 -57.0454C6.24405 -12.6537 16.2496 10.8834 -81.5846 13.5658C-193.791 19.2797 -183.785 42.8168 -51.5679 84.1771C79.5411 122.93 89.5467 146.468 -21.5512 154.788C-89.4188 152.811 -79.4132 176.348 8.46551 225.4C99.2529 281.294 109.258 304.831 38.4822 296.011C-82.9544 293.273 -72.9488 316.81 68.4989 366.622" stroke="white" stroke-width="3"/>
<path d="M640.284 -4.38248C705.533 1.43846 721.004 53.8451 663.001 49.0571C596.658 45.4844 596.608 87.1271 685.718 102.497C750.064 113.595 759.914 165.595 694.41 163.995C640.217 162.672 656.594 195.112 719.896 223.948C769.317 246.461 756.871 255.422 751.31 271.943C744.954 290.824 721.147 315.702 776.586 316.255" stroke="white" stroke-width="3"/>
<path d="M-67.0439 -54.0874C47.7076 -11.9645 58.0346 13.2708 -37.4566 15.5138C-146.965 20.6814 -137.551 45.2836 -7.86925 85.115C119.313 122.242 129.309 147.453 20.8931 155.19C-46.1701 153.251 -35.7898 177.312 50.6433 225.175C138.997 279.105 147.682 301.785 80.7422 294.455C-33.925 292.989 -25.9084 316.605 110.48 363.52" stroke="#FCFCF4" stroke-width="3"/>
<path d="M-22.4892 -51.1283C89.1683 -11.2743 99.8169 15.6592 6.66869 17.4628C-100.142 22.0841 -91.3191 47.7513 35.8266 86.0538C159.081 121.554 169.068 148.439 63.3346 155.593C-2.9242 153.693 7.83087 178.277 92.8182 224.95C178.739 276.917 186.103 298.739 122.999 292.901C15.1017 292.707 21.1292 316.401 152.458 360.418" stroke="#F9F9EA" stroke-width="3"/>
<path d="M22.0634 -48.1682C130.627 -10.5831 141.597 18.0486 50.792 19.4128C-53.3205 23.4878 -45.0894 50.22 79.5205 86.9937C198.848 120.867 208.826 149.427 105.774 155.997C40.3197 154.135 51.4495 179.243 134.991 224.727C218.479 274.73 224.522 295.695 165.254 291.347C64.1263 292.425 68.1649 316.198 194.435 357.318" stroke="#F6F6DF" stroke-width="3"/>
<path d="M66.6133 -45.2069C172.083 -9.89072 183.375 20.4392 94.9125 21.3639C-6.50209 24.8927 1.13746 52.69 123.212 87.9348C238.612 120.181 248.581 150.415 148.211 156.402C83.5609 154.578 95.0654 180.21 177.161 224.505C258.215 272.545 262.938 292.652 207.507 289.795C113.148 292.144 115.198 315.997 236.408 354.218" stroke="#F3F3D5" stroke-width="3"/>
<path d="M111.16 -42.2444C213.536 -9.19706 225.149 22.8311 139.03 23.3164C40.3133 26.2989 47.3614 55.1612 166.9 88.8771C278.373 119.497 288.332 151.405 190.645 156.808C126.799 155.023 138.678 181.179 219.329 224.285C297.949 270.361 301.352 289.611 249.756 288.244C162.167 291.865 162.228 315.796 278.379 351.12" stroke="#F0EFCA" stroke-width="3"/>
<path d="M155.703 -39.2805C254.985 -8.50201 266.92 25.2243 183.144 25.2702C87.125 27.7064 93.5815 57.6337 210.584 89.8208C318.13 118.814 328.08 152.396 233.075 157.216C170.033 155.469 182.288 182.149 261.492 224.065C337.68 268.178 339.761 286.57 292.002 286.694C211.182 291.587 209.254 315.597 320.345 348.024" stroke="#EDECC0" stroke-width="3"/>
<path d="M200.243 -36.3151C296.432 -7.80544 308.688 27.6191 227.254 27.2255C133.934 29.1155 139.799 60.1078 254.265 90.7661C357.884 118.132 367.825 153.389 275.502 157.625C213.265 155.917 225.894 183.12 303.653 223.848C377.407 265.996 378.168 283.531 334.245 285.146C260.194 291.31 256.277 315.399 362.309 344.928" stroke="#E9E9B5" stroke-width="3"/>
<path d="M244.78 -33.3479C337.874 -7.1072 350.451 30.0156 271.361 29.1825C180.738 30.5263 186.012 62.5836 297.943 91.713C397.634 117.452 407.566 154.384 317.925 158.036C256.492 156.366 269.496 184.093 345.809 223.632C417.13 263.817 416.57 280.494 376.483 283.6C309.203 291.036 303.296 315.203 404.269 341.835" stroke="#E6E6AB" stroke-width="3"/>
<path d="M289.311 -30.379C379.311 -6.40709 392.21 32.4139 315.463 31.1414C227.538 31.9389 232.22 65.0613 341.615 92.6617C437.379 116.774 447.302 155.38 360.343 158.449C299.715 156.818 313.093 185.068 387.961 223.417C456.848 261.639 454.968 277.459 418.717 282.055C358.206 290.763 350.31 315.009 446.224 338.743" stroke="#E3E3A0" stroke-width="3"/>
<path d="M333.838 -27.408C420.744 -5.70494 433.965 34.8143 359.561 33.1023C274.333 33.3535 278.424 67.5409 385.283 93.6126C477.12 116.098 487.034 156.378 402.756 158.864C342.933 157.271 356.686 186.045 430.108 223.205C496.562 259.463 493.361 274.426 460.947 280.513C407.205 290.492 397.32 314.817 488.174 335.654" stroke="#E0E096" stroke-width="3"/>
<path d="M378.359 -24.4346C462.172 -5.00049 475.714 37.2169 403.653 35.0655C321.123 34.7705 324.622 70.0229 428.946 94.5657C516.856 115.425 526.76 157.379 445.165 159.281C386.146 157.726 400.274 187.024 472.25 222.995C536.27 257.289 531.749 271.395 503.171 278.972C456.198 290.223 444.325 314.628 530.12 332.566" stroke="#DDDD8B" stroke-width="3"/>
<path d="M422.075 -21.1191C502.794 -3.95386 516.658 39.9618 446.939 37.3709C367.108 36.5296 370.015 72.8471 471.803 95.861C555.786 115.093 565.681 158.722 486.768 160.04C428.553 158.524 443.056 188.346 513.586 223.128C575.173 255.458 569.331 268.706 544.589 277.774C504.386 290.297 490.524 314.78 571.259 329.821" stroke="#DADA81" stroke-width="3"/>
<path d="M465.718 -17.7722C543.343 -2.87576 557.528 42.7381 490.153 39.7078C413.019 38.3202 415.335 75.7027 514.587 97.1878C594.643 114.793 604.529 160.096 528.297 160.831C470.887 159.353 485.764 189.699 554.849 223.291C614.003 253.658 606.84 266.049 585.934 276.608C552.501 290.402 536.65 314.964 612.326 327.108" stroke="#D7D776" stroke-width="3"/>
<path d="M509.36 -14.425C583.891 -1.7975 598.398 45.5145 533.365 42.0448C458.93 40.1109 460.654 78.5585 557.371 98.5147C633.499 114.493 643.376 161.471 569.826 161.621C513.22 160.183 528.472 191.052 596.112 223.455C652.832 251.859 644.349 263.392 627.279 275.441C600.615 290.507 582.775 315.148 653.391 324.394" stroke="#D4D36C" stroke-width="3"/>
<path d="M553.002 -11.0777C624.439 -0.719056 639.267 48.2912 576.578 44.382C504.84 41.9019 505.973 81.4145 600.154 99.8418C672.355 114.194 682.222 162.845 611.355 162.413C555.553 161.012 571.18 192.405 637.374 223.619C691.661 250.059 681.857 260.735 668.623 274.275C648.729 290.613 628.9 315.332 694.457 321.681" stroke="#D1D061" stroke-width="3"/>
<path d="M596.643 -7.73022C664.986 0.359591 680.135 51.0681 619.789 46.7194C550.749 43.693 551.291 84.2707 642.936 101.169C711.21 113.894 721.068 164.22 652.883 163.204C597.885 161.842 613.887 193.759 678.635 223.784C730.489 248.26 719.364 258.078 709.967 273.109C696.842 290.718 675.024 315.517 735.521 318.968" stroke="#CECD57" stroke-width="3"/>
<path d="M-67.0439 -54.0874C47.7076 -11.9645 58.0346 13.2708 -37.4566 15.5138C-146.965 20.6814 -137.551 45.2836 -7.86925 85.115C119.313 122.242 129.309 147.453 20.8931 155.19C-46.1701 153.251 -35.7898 177.312 50.6433 225.175C138.997 279.105 147.682 301.785 80.7422 294.455C-33.925 292.989 -25.9084 316.605 110.48 363.52" stroke="white" stroke-width="3"/>
<path d="M-22.4892 -51.1283C89.1683 -11.2743 99.8169 15.6592 6.66869 17.4628C-100.142 22.0841 -91.3191 47.7513 35.8266 86.0538C159.081 121.554 169.068 148.439 63.3346 155.593C-2.9242 153.693 7.83087 178.277 92.8182 224.95C178.739 276.917 186.103 298.739 122.999 292.901C15.1017 292.707 21.1292 316.401 152.458 360.418" stroke="white" stroke-width="3"/>
<path d="M22.0634 -48.1682C130.627 -10.5831 141.597 18.0486 50.792 19.4128C-53.3205 23.4878 -45.0894 50.22 79.5205 86.9937C198.848 120.867 208.826 149.427 105.774 155.997C40.3197 154.135 51.4495 179.243 134.991 224.727C218.479 274.73 224.522 295.695 165.254 291.347C64.1263 292.425 68.1649 316.198 194.435 357.318" stroke="white" stroke-width="3"/>
<path d="M66.6133 -45.2069C172.083 -9.89072 183.375 20.4392 94.9125 21.3639C-6.50209 24.8927 1.13746 52.69 123.212 87.9348C238.612 120.181 248.581 150.415 148.211 156.402C83.5609 154.578 95.0654 180.21 177.161 224.505C258.215 272.545 262.938 292.652 207.507 289.795C113.148 292.144 115.198 315.997 236.408 354.218" stroke="white" stroke-width="3"/>
<path d="M111.16 -42.2444C213.536 -9.19706 225.149 22.8311 139.03 23.3164C40.3133 26.2989 47.3614 55.1612 166.9 88.8771C278.373 119.497 288.332 151.405 190.645 156.808C126.799 155.023 138.678 181.179 219.329 224.285C297.949 270.361 301.352 289.611 249.756 288.244C162.167 291.865 162.228 315.796 278.379 351.12" stroke="white" stroke-width="3"/>
<path d="M155.703 -39.2805C254.985 -8.50201 266.92 25.2243 183.144 25.2702C87.125 27.7064 93.5815 57.6337 210.584 89.8208C318.13 118.814 328.08 152.396 233.075 157.216C170.033 155.469 182.288 182.149 261.492 224.065C337.68 268.178 339.761 286.57 292.002 286.694C211.182 291.587 209.254 315.597 320.345 348.024" stroke="white" stroke-width="3"/>
<path d="M200.243 -36.3151C296.432 -7.80544 308.688 27.6191 227.254 27.2255C133.934 29.1155 139.799 60.1078 254.265 90.7661C357.884 118.132 367.825 153.389 275.502 157.625C213.265 155.917 225.894 183.12 303.653 223.848C377.407 265.996 378.168 283.531 334.245 285.146C260.194 291.31 256.277 315.399 362.309 344.928" stroke="white" stroke-width="3"/>
<path d="M244.78 -33.3479C337.874 -7.1072 350.451 30.0156 271.361 29.1825C180.738 30.5263 186.012 62.5836 297.943 91.713C397.634 117.452 407.566 154.384 317.925 158.036C256.492 156.366 269.496 184.093 345.809 223.632C417.13 263.817 416.57 280.494 376.483 283.6C309.203 291.036 303.296 315.203 404.269 341.835" stroke="white" stroke-width="3"/>
<path d="M289.311 -30.379C379.311 -6.40709 392.21 32.4139 315.463 31.1414C227.538 31.9389 232.22 65.0613 341.615 92.6617C437.379 116.774 447.302 155.38 360.343 158.449C299.715 156.818 313.093 185.068 387.961 223.417C456.848 261.639 454.968 277.459 418.717 282.055C358.206 290.763 350.31 315.009 446.224 338.743" stroke="white" stroke-width="3"/>
<path d="M333.838 -27.408C420.744 -5.70494 433.965 34.8143 359.561 33.1023C274.333 33.3535 278.424 67.5409 385.283 93.6126C477.12 116.098 487.034 156.378 402.756 158.864C342.933 157.271 356.686 186.045 430.108 223.205C496.562 259.463 493.361 274.426 460.947 280.513C407.205 290.492 397.32 314.817 488.174 335.654" stroke="white" stroke-width="3"/>
<path d="M378.359 -24.4346C462.172 -5.00049 475.714 37.2169 403.653 35.0655C321.123 34.7705 324.622 70.0229 428.946 94.5657C516.856 115.425 526.76 157.379 445.165 159.281C386.146 157.726 400.274 187.024 472.25 222.995C536.27 257.289 531.749 271.395 503.171 278.972C456.198 290.223 444.325 314.628 530.12 332.566" stroke="white" stroke-width="3"/>
<path d="M422.075 -21.1191C502.794 -3.95386 516.658 39.9618 446.939 37.3709C367.108 36.5296 370.015 72.8471 471.803 95.861C555.786 115.093 565.681 158.722 486.768 160.04C428.553 158.524 443.056 188.346 513.586 223.128C575.173 255.458 569.331 268.706 544.589 277.774C504.386 290.297 490.524 314.78 571.259 329.821" stroke="white" stroke-width="3"/>
<path d="M465.718 -17.7722C543.343 -2.87576 557.528 42.7381 490.153 39.7078C413.019 38.3202 415.335 75.7027 514.587 97.1878C594.643 114.793 604.529 160.096 528.297 160.831C470.887 159.353 485.764 189.699 554.849 223.291C614.003 253.658 606.84 266.049 585.934 276.608C552.501 290.402 536.65 314.964 612.326 327.108" stroke="white" stroke-width="3"/>
<path d="M509.36 -14.425C583.891 -1.7975 598.398 45.5145 533.365 42.0448C458.93 40.1109 460.654 78.5585 557.371 98.5147C633.499 114.493 643.376 161.471 569.826 161.621C513.22 160.183 528.472 191.052 596.112 223.455C652.832 251.859 644.349 263.392 627.279 275.441C600.615 290.507 582.775 315.148 653.391 324.394" stroke="white" stroke-width="3"/>
<path d="M553.002 -11.0777C624.439 -0.719056 639.267 48.2912 576.578 44.382C504.84 41.9019 505.973 81.4145 600.154 99.8418C672.355 114.194 682.222 162.845 611.355 162.413C555.553 161.012 571.18 192.405 637.374 223.619C691.661 250.059 681.857 260.735 668.623 274.275C648.729 290.613 628.9 315.332 694.457 321.681" stroke="white" stroke-width="3"/>
<path d="M596.643 -7.73022C664.986 0.359591 680.135 51.0681 619.789 46.7194C550.749 43.693 551.291 84.2707 642.936 101.169C711.21 113.894 721.068 164.22 652.883 163.204C597.885 161.842 613.887 193.759 678.635 223.784C730.489 248.26 719.364 258.078 709.967 273.109C696.842 290.718 675.024 315.517 735.521 318.968" stroke="white" stroke-width="3"/>
</g>
</svg>
